Motion_pl14
version=1
nRows=5
nColumns=43
inDegrees=yes
endheader
time	pelvis_tilt	pelvis_list	pelvis_rotation	pelvis_tx	pelvis_ty	pelvis_tz	hip_flexion_r	hip_adduction_r	hip_rotation_r	knee_angle_r	ankle_angle_r	subtalar_angle_r	mtp_angle_r	hip_flexion_l	hip_adduction_l	hip_rotation_l	knee_angle_l	ankle_angle_l	subtalar_angle_l	mtp_angle_l	lumbar_extension	lumbar_bending	lumbar_rotation	neck_flexion	neck_lateral_bending	neck_rotation	arm_flex_r	arm_add_r	arm_rot_r	elbow_flex_r	pro_sup_r	wrist_flex_r	wrist_dev_r	hand_finger_flex_r	arm_flex_l	arm_add_l	arm_rot_l	elbow_flex_l	pro_sup_l	wrist_flex_l	wrist_dev_l	hand_finger_flex_l
      0.75750000	     -0.05600110	     -4.17122565	     87.75185173	      0.01237703	      1.43778602	      0.88889132	     41.62950260	     -1.53608161	     -4.94721665	    -31.23362164	    -20.83850311	      0.75097801	     18.84767503	     39.00334714	     -8.46886319	    -12.61685296	    -30.06192710	    -22.79997716	     11.14811920	     21.99359829	    -37.66972708	     -2.19712266	     -3.69428030	     -9.87805017	     -2.73203767	      4.81225987	    -34.23376394	    -23.64260042	     -7.40373141	     40.13919295	    110.87428024	      4.17559205	      1.64320771	      8.31205458	    -30.74284650	    -20.40570590	     -6.99463501	     55.60119267	    104.40011239	     -5.51278033	     -6.88242877	     11.06973400
      0.76000000	     -0.10369929	     -4.02958963	     87.68481199	      0.01236607	      1.42940167	      0.88305613	     41.29560537	     -1.57783856	     -5.04557895	    -30.86858365	    -21.02730284	      0.92836333	     18.78088868	     38.56012222	     -8.45165568	    -12.68106120	    -29.72373825	    -22.92105900	     11.38325825	     21.98885309	    -37.28778745	     -2.27003508	     -3.68831485	    -10.92721025	     -2.76374329	      4.77168675	    -35.70343393	    -23.59098066	     -7.85276166	     40.36149568	    110.92592196	      4.14623540	      1.60980469	      8.30467264	    -32.24028260	    -20.12644364	     -7.20647833	     55.81718591	    104.30742393	     -5.60034685	     -6.92346913	     10.98125133
      0.76250000	     -0.15345378	     -3.88885826	     87.62159310	      0.01228965	      1.42099340	      0.87717086	     40.96142039	     -1.63125402	     -5.16061617	    -30.51841929	    -21.22185702	      1.09342915	     18.71694713	     38.11579360	     -8.41934625	    -12.74694073	    -29.37527156	    -23.05643391	     11.63539473	     21.98544883	    -36.89733237	     -2.33856541	     -3.64543068	    -11.99813015	     -2.79118592	      4.73899438	    -37.17836573	    -23.50432214	     -8.36805731	     40.59488928	    111.01881961	      4.12260674	      1.59825902	      8.31605020	    -33.70359584	    -19.80793162	     -7.46517321	     56.03458572	    104.20341343	     -5.73005526	     -6.93962394	     10.87222516
      0.76500000	     -0.20047211	     -3.75949984	     87.56018636	      0.01224498	      1.41252041	      0.87129572	     40.64204425	     -1.67542522	     -5.28447036	    -30.16967466	    -21.43540098	      1.23307775	     18.65813155	     37.67136167	     -8.38310738	    -12.78507116	    -29.01250982	    -23.19108198	     11.85912097	     21.98379974	    -36.50304665	     -2.40332830	     -3.60239729	    -13.02027423	     -2.81900578	      4.71253798	    -38.63433992	    -23.39940366	     -8.90312792	     40.82933360	    111.13292668	      4.11310202	      1.57836692	      8.35101558	    -35.17302485	    -19.49966919	     -7.70815448	     56.29630819	    104.09570506	     -5.85274936	     -6.97589783	     10.77475250
      0.76750000	     -0.24142613	     -3.63428571	     87.50049486	      0.01221281	      1.40399583	      0.86543459	     40.32859983	     -1.71354277	     -5.42391500	    -29.82797399	    -21.67049431	      1.34922437	     18.60385039	     37.23329280	     -8.34509856	    -12.80113305	    -28.63676131	    -23.32925479	     12.04943461	     21.98378969	    -36.10599133	     -2.46454697	     -3.56450203	    -14.03894412	     -2.84229185	      4.69009284	    -40.07757457	    -23.28866874	     -9.45905715	     41.08271541	    111.23969993	      4.10828416	      1.52730162	      8.40424460	    -36.65105090	    -19.19741333	     -7.94985767	     56.60336499	    103.97254664	     -5.96533354	     -7.05219124	     10.69828235
